# xmcd
#
# Track frame offsets:
#	150
#	10613
#	25830
#	37024
#	49385
#	59380
#	70999
#	81540
#	92946
#	103561
#	115881
#	128805
#
# Disc length: 1889 seconds
#
# Revision: 0
# Processed by: cddbd v1.5.2PL0 Copyright (c) Steve Scherf et al.
# Submitted via: audiograbber 1.83.01
#
DISCID=a4075f0c
DTITLE=Warner Mack - Country And Western-Hitparade
DYEAR=1900
DGENRE=Country
TTITLE0=My Shoes Keep Walking Back To You
TTITLE1=Four Walls
TTITLE2=I Fall To Pieces
TTITLE3=The Wild Side Of Life
TTITLE4=Walk On By
TTITLE5=A Satisfied Mind
TTITLE6=Crazy Arms
TTITLE7=Don´t Worry
TTITLE8=Take This Chains From My Heart
TTITLE9=Send Me The Pillow You Dream On
TTITLE10=Have You Ever Been Lonely?
TTITLE11=Someday
EXTD=
EXTT0=
EXTT1=
EXTT2=
EXTT3=
EXTT4=
EXTT5=
EXTT6=
EXTT7=
EXTT8=
EXTT9=
EXTT10=
EXTT11=
PLAYORDER=
